<svg xmlns="http://www.w3.org/2000/svg" viewBox="0 0 709.08 709.54"><defs><style>.cls-1{fill:none;stroke:#000;stroke-miterlimit:10;}</style></defs><g id="レイヤー_2" data-name="レイヤー 2"><g id="レイヤー_1-2" data-name="レイヤー 1"><polygon points="707.74 354.77 620.43 389.86 695.79 446.2 602.38 457.47 660.48 531.48 567.34 518.11 604.34 604.63 517.79 567.71 531.25 660.84 457.19 602.8 445.99 696.23 389.61 620.89 354.54 708.2 319.47 620.89 263.09 696.23 251.88 602.8 177.82 660.84 191.28 567.71 104.73 604.62 141.74 518.11 48.6 531.48 106.7 457.47 13.28 446.2 88.64 389.86 1.34 354.77 88.65 319.69 13.28 263.34 106.7 252.07 48.6 178.06 141.74 191.43 104.73 104.92 191.29 141.83 177.82 48.7 251.88 106.74 263.09 13.31 319.47 88.65 354.54 1.34 389.61 88.65 445.99 13.31 457.19 106.74 531.25 48.7 517.79 141.83 604.35 104.92 567.34 191.43 660.48 178.06 602.38 252.07 695.79 263.34 620.43 319.69 707.74 354.77"/><polygon class="cls-1" points="707.74 354.77 620.43 389.86 695.79 446.2 602.38 457.47 660.48 531.48 567.34 518.11 604.34 604.63 517.79 567.71 531.25 660.84 457.19 602.8 445.99 696.23 389.61 620.89 354.54 708.2 319.47 620.89 263.09 696.23 251.88 602.8 177.82 660.84 191.28 567.71 104.73 604.62 141.74 518.11 48.6 531.48 106.7 457.47 13.28 446.2 88.64 389.86 1.34 354.77 88.65 319.69 13.28 263.34 106.7 252.07 48.6 178.06 141.74 191.43 104.73 104.92 191.29 141.83 177.82 48.7 251.88 106.74 263.09 13.31 319.47 88.65 354.54 1.34 389.61 88.65 445.99 13.31 457.19 106.74 531.25 48.7 517.79 141.83 604.35 104.92 567.34 191.43 660.48 178.06 602.38 252.07 695.79 263.34 620.43 319.69 707.74 354.77"/></g></g></svg>